# xmcd
#
# Track frame offsets:
# 150
# 20904
# 43147
# 65633
# 80626
# 94338
# 117171
# 136994
# 170816
# 196121
# 212924
# 234166
#
# Disc length: 3575 seconds
#
#
# Revision: 1
# Processed by: cddbd v1.5.1PL2 Copyright (c) Steve Scherf et al.
# Submitted via: FreeRIP 2.944 
#
DISCID=af0df50c
DTITLE=Mike and The Mellotones - Thumbs Up!
DYEAR=1999
DGENRE=Bluesrock
TTITLE0=The Devil Is A Woman
TTITLE1=Can't Win For Losin'
TTITLE2=Lazy Lover
TTITLE3=Shark Ride
TTITLE4=Showdown
TTITLE5=You Got To Have A Man (Not Half A Man)
TTITLE6=Been Down Too Long
TTITLE7=Money, Politics and Religion
TTITLE8=I Don't Wanna Know
TTITLE9=I Am The Truth
TTITLE10=Sugar Daddy
TTITLE11=Wedding From Hell
EXTD=
EXTT0=
EXTT1=
EXTT2=
EXTT3=
EXTT4=
EXTT5=
EXTT6=
EXTT7=
EXTT8=
EXTT9=
EXTT10=
EXTT11=
PLAYORDER=
